<svg width="176" height="31" viewBox="0 0 176 31" fill="none" xmlns="http://www.w3.org/2000/svg">
<path d="M53.0653 19.3077H46.4331L45.0939 22.4112H41.1613L48.1549 7.42484H51.2585L58.2734 22.4112H54.4045L53.0653 19.3077ZM51.8112 16.3742L49.7492 11.57L47.6872 16.3742H51.8112Z" fill="white"/>
<path d="M59.1607 7.42484H63.072V19.2439H69.4492V22.4112H59.1607V7.42484Z" fill="white"/>
<path d="M71.3255 7.42484H78.5742C80.2323 7.42484 81.5219 7.84998 82.4431 8.70027C83.3642 9.53639 83.8248 10.7055 83.8248 12.2077C83.8248 13.6957 83.3571 14.8649 82.4218 15.7152C81.5007 16.5655 80.2181 16.9906 78.5742 16.9906H75.2369V22.4112H71.3255V7.42484ZM78.0428 14.0571C78.7656 14.0571 79.297 13.9083 79.6371 13.6107C79.9914 13.3131 80.1685 12.8525 80.1685 12.229C80.1685 11.6054 79.9914 11.1449 79.6371 10.8473C79.297 10.5355 78.7656 10.3796 78.0428 10.3796H75.2369V14.0571H78.0428Z" fill="white"/>
<path d="M99.4863 7.42484V22.4112H95.66V16.3529H89.5379V22.4112H85.7115V7.42484H89.5379V13.2493H95.66V7.42484H99.4863Z" fill="white"/>
<path d="M112.291 19.3077H105.659L104.319 22.4112H100.387L107.381 7.42484H110.484L117.499 22.4112H113.63L112.291 19.3077ZM111.037 16.3742L108.975 11.57L106.913 16.3742H111.037Z" fill="white"/>
<path d="M129.889 22.6025C128.77 22.6025 127.664 22.4537 126.573 22.1561C125.482 21.8585 124.596 21.4617 123.916 20.9657L125.128 18.2023C125.85 18.6558 126.623 19.003 127.445 19.2439C128.267 19.4848 129.096 19.6053 129.932 19.6053C130.782 19.6053 131.427 19.4919 131.866 19.2651C132.32 19.0242 132.546 18.6912 132.546 18.2661C132.546 17.8834 132.341 17.5716 131.93 17.3307C131.533 17.0898 130.768 16.8489 129.634 16.608C128.231 16.3104 127.133 15.9561 126.339 15.5451C125.546 15.1341 124.986 14.6523 124.66 14.0996C124.348 13.5469 124.192 12.8667 124.192 12.0589C124.192 11.1378 124.447 10.3158 124.958 9.59308C125.482 8.85616 126.212 8.28221 127.147 7.87124C128.097 7.44609 129.181 7.23352 130.4 7.23352C131.477 7.23352 132.518 7.38941 133.524 7.70118C134.545 7.99878 135.338 8.3885 135.905 8.87033L134.715 11.6338C133.354 10.6985 131.923 10.2308 130.421 10.2308C129.698 10.2308 129.117 10.3725 128.678 10.6559C128.238 10.9252 128.019 11.2866 128.019 11.7401C128.019 12.0093 128.097 12.229 128.253 12.399C128.408 12.5691 128.699 12.7392 129.124 12.9092C129.549 13.0651 130.18 13.2281 131.016 13.3981C132.376 13.6957 133.446 14.0571 134.226 14.4823C135.005 14.8932 135.558 15.3751 135.884 15.9278C136.21 16.4804 136.373 17.1394 136.373 17.9047C136.373 19.3785 135.806 20.5335 134.672 21.3696C133.538 22.1916 131.944 22.6025 129.889 22.6025Z" fill="white"/>
<path d="M145.366 11.6976C146.613 11.6976 147.541 12.0731 148.151 12.8242C148.76 13.5611 149.065 14.6877 149.065 16.2041V22.4112H145.281V16.3742C145.281 15.7506 145.168 15.2971 144.941 15.0137C144.728 14.7303 144.402 14.5885 143.963 14.5885C143.396 14.5885 142.943 14.7728 142.603 15.1412C142.277 15.4955 142.114 15.9774 142.114 16.5867V22.4112H138.33V7.42484H142.114V13.2068C142.496 12.7108 142.964 12.3353 143.517 12.0802C144.069 11.8251 144.686 11.6976 145.366 11.6976Z" fill="white"/>
<path d="M156.472 22.5813C155.324 22.5813 154.311 22.3616 153.432 21.9223C152.568 21.4688 151.895 20.8311 151.413 20.0092C150.945 19.1872 150.712 18.2235 150.712 17.1182C150.712 16.0128 150.945 15.0562 151.413 14.2484C151.895 13.4265 152.568 12.7958 153.432 12.3565C154.297 11.9172 155.31 11.6976 156.472 11.6976C157.634 11.6976 158.648 11.9172 159.512 12.3565C160.376 12.7958 161.043 13.4265 161.51 14.2484C161.992 15.0562 162.233 16.0128 162.233 17.1182C162.233 18.2235 161.992 19.1872 161.51 20.0092C161.043 20.8311 160.376 21.4688 159.512 21.9223C158.648 22.3616 157.634 22.5813 156.472 22.5813ZM156.472 19.7541C157.819 19.7541 158.492 18.8754 158.492 17.1182C158.492 15.3609 157.819 14.4823 156.472 14.4823C155.126 14.4823 154.453 15.3609 154.453 17.1182C154.453 18.8754 155.126 19.7541 156.472 19.7541Z" fill="white"/>
<path d="M170.876 11.6976C171.769 11.6976 172.563 11.9314 173.257 12.399C173.966 12.8525 174.511 13.4973 174.894 14.3335C175.291 15.1696 175.489 16.1262 175.489 17.2032C175.489 18.2802 175.291 19.2297 174.894 20.0517C174.511 20.8594 173.973 21.483 173.278 21.9223C172.584 22.3616 171.783 22.5813 170.876 22.5813C170.21 22.5813 169.594 22.4467 169.027 22.1774C168.474 21.9081 168.042 21.5468 167.73 21.0933V26.2375H163.946V11.9526H167.667V13.2918C167.964 12.7958 168.396 12.4061 168.963 12.1227C169.544 11.8393 170.182 11.6976 170.876 11.6976ZM169.728 19.7541C170.38 19.7541 170.876 19.5344 171.216 19.0951C171.571 18.6558 171.748 18.0251 171.748 17.2032C171.748 16.3387 171.571 15.6798 171.216 15.2263C170.862 14.7586 170.359 14.5248 169.707 14.5248C169.055 14.5248 168.552 14.7515 168.198 15.205C167.844 15.6585 167.667 16.3104 167.667 17.1607C167.667 17.9968 167.844 18.6416 168.198 19.0951C168.552 19.5344 169.062 19.7541 169.728 19.7541Z" fill="white"/>
<path fill-rule="evenodd" clip-rule="evenodd" d="M19.9174 14.3149C19.9174 14.3149 14.1305 23.6981 9.38607 23.6981C1.08746 23.6981 8.82117 5.82263 14.8736 5.82263C19.0969 5.82263 19.9174 14.3149 19.9174 14.3149Z" fill="#F67599"/>
<path fill-rule="evenodd" clip-rule="evenodd" d="M26.7938 26.1153C25.1452 27.8695 23.1106 29.2156 20.8512 30.0468C18.5917 30.878 16.1697 31.1715 13.7771 30.904C11.3845 30.6364 9.08717 29.8152 7.06723 28.5055C5.04729 27.1958 3.36032 25.4335 2.14008 23.3585C3.51197 25.2244 5.83881 26.4683 9.14749 26.4683C17.2982 26.4683 21.9249 20.1344 21.9249 20.1344C21.9249 20.1344 22.3251 25.1403 26.7837 26.1153H26.7938Z" fill="#F67599"/>
<path fill-rule="evenodd" clip-rule="evenodd" d="M29.2349 8.32727C30.4548 10.6581 31.0607 13.2613 30.9954 15.8912C30.9301 18.5211 30.1958 21.091 28.8617 23.3585C27.8065 22.7666 27.0263 21.7837 26.6895 20.6219L24.9208 15.3235L29.2349 8.32727Z" fill="#808080"/>
<path fill-rule="evenodd" clip-rule="evenodd" d="M15.5025 0.0134609C19.3895 0.010876 23.1349 1.47159 25.9935 4.10493L23.058 8.84189C21.9955 6.07838 19.8368 3.31152 15.637 3.31152C7.03581 3.31152 0.660542 12.7014 0.660542 18.5882C0.658647 19.3495 0.755849 20.1078 0.949711 20.844C0.0895766 18.5013 -0.192161 15.9857 0.128433 13.5108C0.449026 11.0359 1.36248 8.67496 2.79115 6.62867C4.21983 4.58237 6.1215 2.91118 8.33454 1.75714C10.5476 0.603093 13.0066 0.000301095 15.5025 0V0.0134609Z" fill="#808080"/>
</svg>
